<svg id="visual" viewBox="0 0 1300 650" width="1300" height="650" xmlns="http://www.w3.org/2000/svg" xmlns:xlink="http://www.w3.org/1999/xlink" version="1.1"><g transform="translate(641.0929914017721 323.35466753761716)"><path d="M201.7 -321.8C260.7 -315.3 307.5 -259.9 341.1 -198.1C374.8 -136.3 395.4 -68.2 377.2 -10.5C359 47.2 302.1 94.3 269 157.1C235.9 219.9 226.7 298.3 185.8 318.9C145 339.5 72.5 302.2 1.5 299.6C-69.5 297 -139 329.1 -209.4 325.5C-279.7 322 -351 282.9 -363.9 222.7C-376.8 162.5 -331.4 81.3 -309.2 12.8C-287.1 -55.7 -288.2 -111.3 -264 -152C-239.8 -192.7 -190.4 -218.5 -142.2 -231.3C-94 -244.1 -47 -243.9 12.2 -265C71.3 -286.1 142.7 -328.4 201.7 -321.8" fill="#004AAD"></path></g></svg>